<svg xmlns="http://www.w3.org/2000/svg" version="1.1" xmlns:xlink="http://www.w3.org/1999/xlink" xmlns:svgjs="http://svgjs.dev/svgjs" width="1000" height="1000" viewBox="0 0 1000 1000"><rect width="1000" height="1000" fill="#ffffff"></rect><g transform="matrix(0.7,0,0,0.7,149.57575757575756,402.6980775083134)"><svg viewBox="0 0 396 110" data-background-color="#ffffff" preserveAspectRatio="xMidYMid meet" height="277" width="1000" xmlns="http://www.w3.org/2000/svg" xmlns:xlink="http://www.w3.org/1999/xlink"><g id="tight-bounds" transform="matrix(1,0,0,1,0.2400000000000091,0.19964659146737063)"><svg viewBox="0 0 395.52 109.60070681706526" height="109.60070681706526" width="395.52"><g><svg viewBox="0 0 591.0693997661431 163.78849108087527" height="109.60070681706526" width="395.52"><g transform="matrix(1,0,0,1,195.54939976614304,48.26004650573297)"><svg viewBox="0 0 395.52 67.26839806940933" height="67.26839806940933" width="395.52"><g id="textblocktransform"><svg viewBox="0 0 395.52 67.26839806940933" height="67.26839806940933" width="395.52" id="textblock"><g><svg viewBox="0 0 395.52 67.26839806940933" height="67.26839806940933" width="395.52"><g transform="matrix(1,0,0,1,0,0)"><svg width="395.52" viewBox="0.75 -36.5 219.98 37" height="67.26839806940933" data-palette-color="#0074d9"><g class="wordmark-text-0" data-fill-palette-color="primary" id="text-0"><path d="M0.75-35.5L3.45-35.5 16.95-3.2 30.45-35.5 33.15-35.5 18.2 0 15.75 0 0.75-35.5ZM34.7-35.5L37.4-35.5 50.9-3.2 64.4-35.5 67.1-35.5 52.15 0 49.7 0 34.7-35.5Z" fill="#000000" data-fill-palette-color="primary"></path><path d="M80.65 0L95.75-35.5 97.95-35.5 112.95 0 110.25 0 105.3-11.7 88.35-11.7 83.4 0 80.65 0ZM88.95-13.8L104.6-13.8 96.85-32.4 88.95-13.8ZM120.1 0L117.6 0 117.6-26 120.1-26 120.1 0ZM120.1-31.9L117.6-31.9 117.6-36.5 120.1-36.5 120.1-31.9ZM140.24-26.1L140.24-23.75Q136.74-23.65 134.12-21.68 131.49-19.7 130.44-16.25L130.44-16.25 130.44 0 127.94 0 127.94-26 130.34-26 130.34-19.6Q131.69-22.35 133.94-24.08 136.19-25.8 138.69-26.05L138.69-26.05Q139.19-26.1 139.59-26.1 139.99-26.1 140.24-26.1L140.24-26.1ZM145.19-4.4L145.19-36.5 147.74-36.5 147.74-5.15Q147.74-3.35 148.49-2.68 149.24-2 150.44-2L150.44-2Q151.24-2 152.09-2.15 152.94-2.3 153.59-2.55L153.59-2.55 154.09-0.5Q153.24-0.2 151.99 0.05 150.74 0.3 149.84 0.3L149.84 0.3Q147.74 0.3 146.47-0.98 145.19-2.25 145.19-4.4L145.19-4.4ZM160.44 0L157.94 0 157.94-26 160.44-26 160.44 0ZM160.44-31.9L157.94-31.9 157.94-36.5 160.44-36.5 160.44-31.9ZM189.54-14.95L189.54 0 187.04 0 187.04-14.5Q187.04-19.5 185.61-21.83 184.19-24.15 181.09-24.15L181.09-24.15Q178.89-24.15 176.76-23.1 174.64-22.05 173.06-20.23 171.49-18.4 170.79-16.1L170.79-16.1 170.79 0 168.29 0 168.29-26 170.64-26 170.64-19.8Q171.69-21.8 173.44-23.28 175.19-24.75 177.34-25.6 179.49-26.45 181.79-26.45L181.79-26.45Q183.94-26.45 185.41-25.68 186.89-24.9 187.81-23.45 188.74-22 189.14-19.85 189.54-17.7 189.54-14.95L189.54-14.95ZM208.13 0.5L208.13 0.5Q205.38 0.5 203.03-0.58 200.68-1.65 198.96-3.53 197.23-5.4 196.26-7.88 195.28-10.35 195.28-13.1L195.28-13.1Q195.28-16.8 196.93-19.8 198.58-22.8 201.48-24.63 204.38-26.45 207.98-26.45L207.98-26.45Q211.68-26.45 214.53-24.6 217.38-22.75 219.06-19.73 220.73-16.7 220.73-13.1L220.73-13.1Q220.73-12.8 220.73-12.5 220.73-12.2 220.68-12L220.68-12 197.88-12Q198.08-9.05 199.53-6.65 200.98-4.25 203.26-2.88 205.53-1.5 208.23-1.5L208.23-1.5Q210.93-1.5 213.33-2.9 215.73-4.3 216.68-6.5L216.68-6.5 218.88-5.9Q218.13-4.05 216.51-2.6 214.88-1.15 212.71-0.33 210.53 0.5 208.13 0.5ZM197.78-13.95L197.78-13.95 218.33-13.95Q218.13-17 216.73-19.35 215.33-21.7 213.06-23.05 210.78-24.4 208.03-24.4L208.03-24.4Q205.28-24.4 203.03-23.05 200.78-21.7 199.38-19.35 197.98-17 197.78-13.95Z" fill="#000000" data-fill-palette-color="secondary"></path></g></svg></g></svg></g></svg></g></svg></g><g><svg viewBox="0 0 163.78849108087527 163.78849108087527" height="163.78849108087527" width="163.78849108087527"><g><svg></svg></g><g id="icon-0"><svg viewBox="0 0 163.78849108087527 163.78849108087527" height="163.78849108087527" width="163.78849108087527"><g><path d="M0 81.894c0-45.229 36.665-81.894 81.894-81.894 45.229 0 81.894 36.665 81.894 81.894 0 45.229-36.665 81.894-81.894 81.894-45.229 0-81.894-36.665-81.894-81.894zM81.894 157.722c41.879 0 75.828-33.949 75.828-75.828 0-41.879-33.949-75.828-75.828-75.828-41.879 0-75.828 33.949-75.828 75.828 0 41.879 33.949 75.828 75.828 75.828z" data-fill-palette-color="accent" fill="#000000" stroke="transparent"></path></g><g transform="matrix(1,0,0,1,34.502196377933515,49.53767813801233)"><svg viewBox="0 0 94.78409832500824 64.71313480485061" height="64.71313480485061" width="94.78409832500824"><g><svg xmlns:x="http://ns.adobe.com/Extensibility/1.0/" xmlns:i="http://ns.adobe.com/AdobeIllustrator/10.0/" xmlns:graph="http://ns.adobe.com/Graphs/1.0/" xmlns="http://www.w3.org/2000/svg" xmlns:xlink="http://www.w3.org/1999/xlink" xmlns:a="http://ns.adobe.com/AdobeSVGViewerExtensions/3.0/" version="1.1" x="0" y="0" viewBox="14.9140625 26 70.3046875 48" enable-background="new 0 0 100 100" xml:space="preserve" height="64.71313480485061" width="94.78409832500824" class="icon-z$-0" data-fill-palette-color="accent" id="z$-0"><path d="M45.555 29.168c0.185 0.124 0.323 0.305 0.393 0.516L50.72 44h5.337l-6.75-18h-8.504L45.555 29.168z" fill="#000000" data-fill-palette-color="accent"></path><path d="M50.72 56l-4.772 14.316c-0.07 0.211-0.209 0.392-0.393 0.516L40.803 74h8.504l6.75-18H50.72z" fill="#000000" data-fill-palette-color="accent"></path><path d="M57.503 46C57.502 46 57.501 46 57.5 46 57.499 46 57.498 46 57.497 46H27.5c-0.379 0-0.725-0.214-0.895-0.553L21.882 36h-6.968l3.293 3.293c0.147 0.147 0.245 0.337 0.279 0.542L20.847 54h56.53l7.842-1.96L77.167 46H57.503z" fill="#000000" data-fill-palette-color="accent"></path></svg><g></g></g></svg></g></svg></g></svg></g></svg></g><defs></defs></svg><rect width="395.52" height="109.60070681706526" fill="none" stroke="none" visibility="hidden"></rect></g></svg></g></svg>